<svg fill="none" height="580" viewBox="0 0 1200 580" width="1200" xmlns="http://www.w3.org/2000/svg" xmlns:xlink="http://www.w3.org/1999/xlink"><clipPath id="a"><path d="m0 0h1200v580h-1200z"/></clipPath><path d="m0 0h1200v580h-1200z" fill="#fff"/><g clip-path="url(#a)"><path d="m734.567 34.372c-28.692 61.724-23.266 100.422 16.275 116.094 59.313 23.508 200.347 32.911 259.298 83.906 58.95 50.994 238.7 11.572 269.44-75.95s86.09-222.422-205.77-222.422c-194.578 0-307.656 32.79-339.242 98.372z" fill="#fffa72"/><path d="m256.788 156.242c-80.338 172.827-65.145 281.181 45.57 325.063 166.076 65.822 560.971 92.151 726.032 234.937 165.06 142.783 668.36 32.401 754.43-212.66 86.08-245.062 241.05-622.782-576.16-622.782-544.81 0-861.429 91.812-949.87 275.442z" fill="#fff"/><path d="m296.603 146.086c-76.034 163.568-61.655 266.118 43.128 307.649 157.18 62.296 530.92 87.214 687.139 222.351 156.22 135.134 632.55 30.666 714.01-201.268 81.47-231.933 228.14-589.418-545.29-589.418-515.625 0-815.282 86.8934-898.985 260.686z" fill="#f8f8f8"/><path d="m336.418 135.93c-71.73 154.31-58.166 251.055 40.687 290.235 148.282 58.77 500.867 82.278 648.245 209.765 147.38 127.485 596.74 28.93 673.6-189.875 76.85-218.805 215.22-556.055-514.43-556.055-486.44 0-769.135 81.975-848.1 245.93z" fill="#f1f1f1"/><path d="m376.233 125.774c-67.427 145.052-54.676 235.992 38.246 272.821 139.385 55.244 470.815 77.341 609.351 197.179 138.53 119.836 560.94 27.194 633.18-178.482 72.24-205.677 202.31-522.692-483.56-522.692-457.255 0-722.988 77.0566-797.215 231.174z" fill="#eaeaea"/><path d="m416.047 115.618c-63.122 135.793-51.185 220.929 35.805 255.407 130.489 51.718 440.764 72.404 570.458 184.593 129.69 112.187 525.13 25.459 592.76-167.09 67.63-192.548 189.4-489.328-452.69-489.328-428.07 0-676.841 72.138-746.33 216.418z" fill="#e3e3e3"/><path d="m455.862 105.463c-58.818 126.534-47.695 205.865 33.364 237.992 121.592 48.192 410.711 67.468 531.564 172.008 120.85 104.537 489.33 23.722 552.35-155.698s176.48-455.965-421.83-455.965c-398.884 0-630.694 67.2195-695.446 201.663z" fill="#dcdcdc"/><path d="m495.677 95.3067c-54.514 117.2753-44.205 190.8023 30.923 220.5783 112.695 44.666 380.659 62.531 492.67 159.422 112 96.888 453.52 21.986 511.93-144.305 58.41-166.292 163.57-422.6021-390.96-422.6021-369.699 0-584.547 62.301-644.561 186.9068z" fill="#d5d5d5"/><path d="m535.492 85.151c-50.211 108.017-40.715 175.739 28.481 203.165 103.798 41.139 350.608 57.594 453.777 146.835 103.16 89.24 417.72 20.251 471.51-132.913 53.8-153.163 150.66-389.238-360.1-389.238-340.504 0-538.391 57.3825-593.666 172.151z" fill="#cdcdcd"/><path d="m575.307 74.9953c-45.907 98.7587-37.225 160.6757 26.04 185.7507 94.901 37.613 320.555 52.657 414.883 134.249 94.32 81.591 381.91 18.516 431.1-121.52 49.18-140.035 137.74-355.8749-329.24-355.8749-311.319 0-492.244 52.464-542.781 157.3952z" fill="#c6c6c6"/><path d="m615.122 64.8394c-41.603 89.4996-33.736 145.6116 23.599 168.3366 86.004 34.086 290.503 47.721 375.979 121.663 85.48 73.942 346.12 16.78 390.69-110.127s124.83-322.512-298.37-322.512c-282.134 0-446.097 47.5455-491.896 142.6394z" fill="#bfbfbf"/><path d="m654.937 54.6836c-37.299 80.2414-30.246 130.5484 21.158 150.9224 77.106 30.56 260.451 42.784 337.085 109.078 76.64 66.292 310.31 15.043 350.27-98.735 39.97-113.779 111.92-289.149-267.5-289.149-252.948 0-399.95 42.627-441.012 127.8836z" fill="#b8b8b8"/><path d="m694.752 44.5277c-32.996 70.9823-26.756 115.4853 18.716 133.5083 68.21 27.034 230.399 37.847 298.192 96.492 67.79 58.643 274.5 13.307 309.86-87.343 35.35-100.6501 99-255.7851-236.64-255.7851-223.763 0-353.803 37.7085-390.127 113.1278z" fill="#b1b1b1"/></g></svg>