<svg width="700" height="700" xmlns="http://www.w3.org/2000/svg">
 <defs>
  <style>.cls-1{fill:#f37068;}.cls-1,.cls-2,.cls-3,.cls-4,.cls-5{stroke:#000;stroke-miterlimit:10;}.cls-1,.cls-2,.cls-3{stroke-width:16px;}.cls-2{fill:#ffcb5d;}.cls-3{fill:#ee839d;}.cls-4,.cls-5{fill:#3fffc0;}.cls-4{stroke-width:14px;}.cls-5{stroke-width:13px;}.cls-6{fill:#33c5c1;}</style>
 </defs>
 <title>logo</title>
 <g>
  <title>background</title>
  <rect fill="none" id="canvas_background" height="702" width="702" y="-1" x="-1"/>
 </g>
 <g>
  <title>Layer 1</title>
  <polygon id="svg_1" points="8.392999649047852,352.4309997558594 352.50201416015625,321.72100830078125 335.9079895019531,354.28399658203125 314.7139892578125,403.4209899902344 292.62298583984375,471.2120056152344 280.4200134277344,523.1729736328125 276.25299072265625,545.8189697265625 272.5660095214844,569.9920043945312 269.2829895019531,597.8060302734375 267.29400634765625,621.344970703125 265.8840026855469,646.9320068359375 265.09698486328125,676.85400390625 245.9530029296875,672.5490112304688 225.64700317382812,666.9210205078125 209.6529998779297,661.406005859375 191.80299377441406,654.052978515625 174.6490020751953,645.7109985351562 159.54100036621094,637.2319946289062 144.6529998779297,627.7360229492188 134.01800537109375,620.1959838867188 120.29499816894531,609.4169921875 104.97599792480469,595.8079833984375 89.34200286865234,579.8720092773438 72.83499908447266,560.2449951171875 60.125999450683594,542.5700073242188 47.8849983215332,522.6419677734375 38.2400016784668,504.09698486328125 28.611000061035156,481.7200012207031 20.36199951171875,457.2510070800781 14.913999557495117,435.6619873046875 11.003999710083008,413.53399658203125 8.392999649047852,393.37701416015625 8.00100040435791,374.1860046386719 8.392999649047852,352.4309997558594 " class="cls-1"/>
  <polygon id="svg_2" points="38.314998626708984,350.0679931640625 352.50201416015625,321.72100830078125 342.65399169921875,340.5400085449219 332.7770080566406,360.9389953613281 325.8080139160156,376.42498779296875 319.4440002441406,391.5190124511719 311.9179992675781,410.7720031738281 304.49700927734375,431.8089904785156 297.1189880371094,455.322998046875 290.8689880371094,477.7850036621094 285.2860107421875,500.4909973144531 280.2879943847656,523.843017578125 276.8450012207031,542.3629760742188 273.64898681640625,562.3380126953125 270.781005859375,584.031982421875 267.9729919433594,612.3060302734375 266.531005859375,633.7839965820312 265.8840026855469,646.9320068359375 244.9010009765625,641.791015625 230.2530059814453,637.3679809570312 213.13600158691406,631.0570068359375 191.16400146484375,621.0040283203125 170.2530059814453,609.1690063476562 150.50100708007812,595.6510009765625 132.0050048828125,580.5460205078125 116.9280014038086,566.10498046875 102.9540023803711,550.5889892578125 86.71099853515625,529.166015625 72.53600311279297,506.2130126953125 63.029998779296875,487.3919982910156 57.09400177001953,473.4700012207031 49.14099884033203,450.4289855957031 43.17599868774414,426.53399658203125 38.9630012512207,398.7510070800781 37.52799987792969,379.9909973144531 37.52799987792969,362.6669921875 38.314998626708984,350.0679931640625 " class="cls-2"/>
  <circle id="svg_3" r="18.89846" cy="389.44021" cx="138.33421" class="cls-3"/>
  <circle id="svg_4" r="19.68589" cy="545.35249" cx="206.03907" class="cls-3"/>
  <polygon id="svg_5" points="129.91799926757812,461.82000732421875 196.47900390625,442.1969909667969 196.47900390625,481.4419860839844 129.91799926757812,461.82000732421875 " class="cls-4"/>
  <path id="svg_6" d="m297.967291,435.461265c-16.24206,-6.23477 -24.76719,-23.38091 -19.04142,-38.297s23.5342,-21.95368 39.77626,-15.71892" class="cls-3"/>
  <polygon id="svg_7" points="66.10299682617188,298.72100830078125 431.4729919433594,267.2229919433594 422.2090148925781,285.1319885253906 415.3789978027344,299.09698486328125 407.85101318359375,315.3380126953125 400.6419982910156,331.86199951171875 394.1130065917969,347.7869873046875 386.07000732421875,368.9070129394531 379.3590087890625,388.0740051269531 373.177001953125,407.3089904785156 366.22698974609375,431.2669982910156 360.47198486328125,453.6199951171875 355.1050109863281,477.4219970703125 351,498.48699951171875 347.2619934082031,520.3779907226562 343.364990234375,545.7890014648438 340.4679870605469,571.780029296875 339.1789855957031,596.0809936523438 339.1510009765625,612.8989868164062 340.1300048828125,638.8930053710938 376.35198974609375,641.2550048828125 413.6889953613281,638.8610229492188 438.2919921875,634.6199951171875 463.80499267578125,628.2869873046875 491.7820129394531,618.583984375 518.5399780273438,606.3330078125 540.6630249023438,593.72998046875 560.7899780273438,580.0139770507812 586.6099853515625,558.6729736328125 602.7639770507812,542.6749877929688 614.9359741210938,528.927978515625 630.583984375,508.5050048828125 644.6420288085938,486.6289978027344 656.3400268554688,464.6499938964844 667.4099731445312,438.70599365234375 674.5419921875,417.24798583984375 678.864990234375,400.7909851074219 682.5750122070312,382.375 685.4340209960938,361.2139892578125 686.9979858398438,336.6940002441406 686.9979858398438,319.40301513671875 685.35400390625,297.66400146484375 681.989990234375,273.947998046875 674.7080078125,242.98800659179688 665.9229736328125,217.0679931640625 654.2969970703125,190.85499572753906 642.3839721679688,169.23800659179688 627.89501953125,147.38699340820312 610.2479858398438,125.24900817871094 584.1190185546875,98.71800231933594 563.333984375,81.5479965209961 541.3690185546875,66.37799835205078 513.27001953125,50.667999267578125 478.5060119628906,36.09700012207031 440.6990051269531,25.54399871826172 406.5639953613281,20.283000946044922 364.2300109863281,19.012001037597656 326.4440002441406,22.716999053955078 292.8070068359375,30.03499984741211 264.718994140625,39.27799987792969 236.927001953125,51.525001525878906 212.25999450683594,65.31300354003906 186.21600341796875,83.35800170898438 167.88099670410156,98.6449966430664 151.01800537109375,115.02200317382812 135.39700317382812,132.57199096679688 120.24600219726562,152.718994140625 103.16500091552734,180.29800415039062 88.22799682617188,211.50100708007812 78.78199768066406,237.76300048828125 71.23300170898438,267.2229919433594 68.6780014038086,281.3970031738281 66.10299682617188,298.72100830078125 " class="cls-1"/>
  <polygon id="svg_8" points="97.4209976196289,296.1109924316406 432.5159912109375,267.2229919433594 415.7929992675781,300.4230041503906 405.1679992675781,323.75299072265625 396.6719970703125,344.00299072265625 388.385986328125,365.4389953613281 378.7330017089844,393.1080017089844 368.6669921875,426.2200012207031 362.3269958496094,450.29901123046875 356.9230041503906,473.531005859375 351.54901123046875,501.2560119628906 347.30999755859375,526.4660034179688 343.82501220703125,550.1690063476562 341.63800048828125,570.2940063476562 340.4530029296875,588.802001953125 340.1400146484375,601.0599975585938 341.17401123046875,608.969970703125 350.614013671875,610.1069946289062 368.9100036621094,611.3330078125 399.04998779296875,610.4810180664062 415.1510009765625,608.9359741210938 429.0639953613281,606.5269775390625 445.385009765625,602.968017578125 457.52801513671875,599.64697265625 473.55499267578125,594.3369750976562 494.5159912109375,585.7050170898438 512.6599731445312,576.5479736328125 529.2470092773438,566.6530151367188 545.4329833984375,555.406982421875 558.0159912109375,545.4249877929688 573.114013671875,531.781982421875 583.3159790039062,521.3499755859375 594.323974609375,508.77099609375 607.2470092773438,491.8340148925781 619.5020141601562,472.88299560546875 630.0809936523438,453.24700927734375 637.7050170898438,436.2330017089844 644.7030029296875,417.1470031738281 650.0789794921875,398.4750061035156 654.6699829101562,376.4309997558594 656.97998046875,359.3500061035156 658.2540283203125,341.91400146484375 658.4459838867188,323.8089904785156 657.47998046875,305.5820007324219 654.9459838867188,284.9119873046875 651.5250244140625,267.2229919433594 647.3740234375,251.17001342773438 643.041015625,237.55999755859375 638.2379760742188,224.73199462890625 630.0850219726562,206.41000366210938 621.9089965820312,190.92100524902344 610.4329833984375,172.42999267578125 599.0579833984375,156.77999877929688 586.9019775390625,142.23500061035156 576.0590209960938,130.76800537109375 560.6329956054688,116.447998046875 543.1409912109375,102.5469970703125 523.8350219726562,89.5979995727539 502.6499938964844,77.84400177001953 485.79400634765625,70.11000061035156 465.4630126953125,62.49700164794922 446.24200439453125,56.895999908447266 428.4909973144531,53.01499938964844 408.9049987792969,50.10499954223633 388.4200134277344,48.316001892089844 361.3399963378906,48.744998931884766 337.2439880371094,51.10200119018555 312.114990234375,55.832000732421875 291.7250061035156,61.464996337890625 270.2690124511719,69.25599670410156 251.59500122070312,77.7249984741211 234.0070037841797,87.37799835205078 215.55499267578125,99.18699645996094 195.81900024414062,114.36799621582031 181.1529998779297,127.61599731445312 167.82899475097656,141.42999267578125 157.58099365234375,153.46099853515625 145.92599487304688,169.00599670410156 135.6529998779297,183.7550048828125 127.77899932861328,197.9290008544922 120.69200134277344,211.31500244140625 116.19300079345703,223.68800354003906 110.45500183105469,237.30099487304688 106.51799774169922,249.11199951171875 104.13099670410156,259.6759948730469 101.79299926757812,269.58599853515625 99.43099975585938,279.8219909667969 98.64399719238281,286.12200927734375 97.4209976196289,296.1109924316406 " class="cls-2"/>
  <circle id="svg_9" r="33.859741" cy="106.5864" cx="381.78699" class="cls-3"/>
  <circle id="svg_10" r="28.741409" cy="521.95877" cx="450.76506" class="cls-3"/>
  <circle id="svg_11" r="20.079611" cy="233.75728" cx="548.4071" class="cls-3"/>
  <circle id="svg_12" r="19.292179" cy="169.28908" cx="212.4715" class="cls-3"/>
  <polygon id="svg_13" points="393.5369873046875,203.76400756835938 468.5570068359375,184.0330047607422 460.47900390625,242.95700073242188 393.5369873046875,203.76400756835938 " class="cls-5"/>
  <polygon id="svg_14" points="539.406982421875,426.7239990234375 491.489990234375,363.42401123046875 540.4979858398438,347.3399963378906 539.406982421875,426.7239990234375 " class="cls-5"/>
  <circle id="svg_15" r="25.98538" cy="234.151" cx="298.39624" class="cls-3"/>
  <path id="svg_16" d="m400.061361,354.274645a28.15477,28.15477 0 0 1 -18.48917,53.18754" class="cls-3"/>
 </g>
</svg>