<svg xmlns="http://www.w3.org/2000/svg" viewBox="0 0 1624.80344 675.79504"><defs><style>.cls-1{fill:#f37068;}.cls-1,.cls-2,.cls-3,.cls-4,.cls-5{stroke:#000;stroke-miterlimit:10;}.cls-1,.cls-2,.cls-3{stroke-width:16px;}.cls-2{fill:#ffcb5d;}.cls-3{fill:#ee839d;}.cls-4,.cls-5{fill:#3fffc0;}.cls-4{stroke-width:14px;}.cls-5{stroke-width:13px;}.cls-6{fill:#33c5c1;}</style></defs><title>logo</title><polygon class="cls-1" points="8.393 341.431 352.502 310.721 335.908 343.284 314.714 392.421 292.623 460.212 280.42 512.173 276.253 534.819 272.566 558.992 269.283 586.806 267.294 610.345 265.884 635.932 265.097 665.854 245.953 661.549 225.647 655.921 209.653 650.406 191.803 643.053 174.649 634.711 159.541 626.232 144.653 616.736 134.018 609.196 120.295 598.417 104.976 584.808 89.342 568.872 72.835 549.245 60.126 531.57 47.885 511.642 38.24 493.097 28.611 470.72 20.362 446.251 14.914 424.662 11.004 402.534 8.393 382.377 8.001 363.186 8.393 341.431"/><polygon class="cls-2" points="38.315 339.068 352.502 310.721 342.654 329.54 332.777 349.939 325.808 365.425 319.444 380.519 311.918 399.772 304.497 420.809 297.119 444.323 290.869 466.785 285.286 489.491 280.288 512.843 276.845 531.363 273.649 551.338 270.781 573.032 267.973 601.306 266.531 622.784 265.884 635.932 244.901 630.791 230.253 626.368 213.136 620.057 191.164 610.004 170.253 598.169 150.501 584.651 132.005 569.546 116.928 555.105 102.954 539.589 86.711 518.166 72.536 495.213 63.03 476.392 57.094 462.47 49.141 439.429 43.176 415.534 38.963 387.751 37.528 368.991 37.528 351.667 38.315 339.068"/><circle class="cls-3" cx="138.33421" cy="378.44021" r="18.89846"/><circle class="cls-3" cx="206.03907" cy="534.35249" r="19.68589"/><polygon class="cls-4" points="129.918 450.82 196.479 431.197 196.479 470.442 129.918 450.82"/><path class="cls-3" d="M455.969,674.73455c-16.24206-6.23477-24.76719-23.38091-19.04142-38.297s23.5342-21.95368,39.77626-15.71892" transform="translate(-158.00171 -250.27328)"/><polygon class="cls-1" points="66.103 287.721 431.473 256.223 422.209 274.132 415.379 288.097 407.851 304.338 400.642 320.862 394.113 336.787 386.07 357.907 379.359 377.074 373.177 396.309 366.227 420.267 360.472 442.62 355.105 466.422 351 487.487 347.262 509.378 343.365 534.789 340.468 560.78 339.179 585.081 339.151 601.899 340.13 627.893 376.352 630.255 413.689 627.861 438.292 623.62 463.805 617.287 491.782 607.584 518.54 595.333 540.663 582.73 560.79 569.014 586.61 547.673 602.764 531.675 614.936 517.928 630.584 497.505 644.642 475.629 656.34 453.65 667.41 427.706 674.542 406.248 678.865 389.791 682.575 371.375 685.434 350.214 686.998 325.694 686.998 308.403 685.354 286.664 681.99 262.948 674.708 231.988 665.923 206.068 654.297 179.855 642.384 158.238 627.895 136.387 610.248 114.249 584.119 87.718 563.334 70.548 541.369 55.378 513.27 39.668 478.506 25.097 440.699 14.544 406.564 9.283 364.23 8.012 326.444 11.717 292.807 19.035 264.719 28.278 236.927 40.525 212.26 54.313 186.216 72.358 167.881 87.645 151.018 104.022 135.397 121.572 120.246 141.719 103.165 169.298 88.228 200.501 78.782 226.763 71.233 256.223 68.678 270.397 66.103 287.721"/><polygon class="cls-2" points="97.421 285.111 432.516 256.223 415.793 289.423 405.168 312.753 396.672 333.003 388.386 354.439 378.733 382.108 368.667 415.22 362.327 439.299 356.923 462.531 351.549 490.256 347.31 515.466 343.825 539.169 341.638 559.294 340.453 577.802 340.14 590.06 341.174 597.97 350.614 599.107 368.91 600.333 399.05 599.481 415.151 597.936 429.064 595.527 445.385 591.968 457.528 588.647 473.555 583.337 494.516 574.705 512.66 565.548 529.247 555.653 545.433 544.407 558.016 534.425 573.114 520.782 583.316 510.35 594.324 497.771 607.247 480.834 619.502 461.883 630.081 442.247 637.705 425.233 644.703 406.147 650.079 387.475 654.67 365.431 656.98 348.35 658.254 330.914 658.446 312.809 657.48 294.582 654.946 273.912 651.525 256.223 647.374 240.17 643.041 226.56 638.238 213.732 630.085 195.41 621.909 179.921 610.433 161.43 599.058 145.78 586.902 131.235 576.059 119.768 560.633 105.448 543.141 91.547 523.835 78.598 502.65 66.844 485.794 59.11 465.463 51.497 446.242 45.896 428.491 42.015 408.905 39.105 388.42 37.316 361.34 37.745 337.244 40.102 312.115 44.832 291.725 50.465 270.269 58.256 251.595 66.725 234.007 76.378 215.555 88.187 195.819 103.368 181.153 116.616 167.829 130.43 157.581 142.461 145.926 158.006 135.653 172.755 127.779 186.929 120.692 200.315 116.193 212.688 110.455 226.301 106.518 238.112 104.131 248.676 101.793 258.586 99.431 268.822 98.644 275.122 97.421 285.111"/><circle class="cls-3" cx="381.78699" cy="95.5864" r="33.85974"/><circle class="cls-3" cx="450.76506" cy="510.95877" r="28.74141"/><circle class="cls-3" cx="548.4071" cy="222.75728" r="20.07961"/><circle class="cls-3" cx="212.4715" cy="158.28908" r="19.29218"/><polygon class="cls-5" points="393.537 192.764 468.557 173.033 460.479 231.957 393.537 192.764"/><polygon class="cls-5" points="539.407 415.724 491.49 352.424 540.498 336.34 539.407 415.724"/><circle class="cls-3" cx="298.39624" cy="223.151" r="25.98538"/><path class="cls-3" d="M558.06307,593.54793a28.15477,28.15477,0,0,1-18.48917,53.18754" transform="translate(-158.00171 -250.27328)"/><path class="cls-6" d="M758.23193,541.15674q5.22365,85.93725,7.95948,128.78564,2.73486,47.06544,14.9248,67.6709A65.8218,65.8218,0,0,0,807.4834,762.2002q18.15381,8.90038,35.07275,4.21484,15.42042-4.4458,66.41455-18.9668a33.69842,33.69842,0,0,1,20.39746.2334q11.19288,3.5127,7.71094,11.47461-1.99365,4.916-12.18847,7.72656-8.71,2.80958-26.36719,7.96192-17.66456,5.38915-26.61524,7.96093-27.11572,8.19873-43.28174,9.834-24.38085,2.5796-41.78906-5.85352-21.39624-10.06494-32.83447-36.05957-8.45874-18.731-12.686-49.64062a1320.67,1320.67,0,0,1-8.706-267.17237,30.49831,30.49831,0,0,1,5.22363-16.15673q5.22363-7.72705,12.686-5.38575Q753.00415,455.22218,758.23193,541.15674Z" transform="translate(-158.00171 -250.27328)"/><path class="cls-6" d="M1068.8916,536.23975a20.55122,20.55122,0,0,1-12.18847-.93653,76.69815,76.69815,0,0,1-10.69629-5.854,82.62069,82.62069,0,0,0-10.44727-5.61963q-13.93359-5.85059-30.09766.46826a54.00148,54.00148,0,0,0-24.626,18.73242q-12.19044,17.3313-16.915,56.66553-5.47413,45.1941-4.22852,72.82227,1.9878,40.04076,17.16309,69.07568,7.95849,15.4541,18.15918,22.01074,31.83691,20.84326,87.80664-21.07324-2.49024,21.30908-21.14356,36.52734-18.90674,15.22413-41.54,14.04981a68.85614,68.85614,0,0,1-34.32715-11.00488,87.62254,87.62254,0,0,1-25.37207-25.05469q-16.17187-24.35157-21.14258-66.2666a340.85092,340.85092,0,0,1,5.7207-113.79932q7.70655-35.12329,23.38184-52.2168A63.37425,63.37425,0,0,1,993.77051,508.375a83.83738,83.83738,0,0,1,60.94238,3.04395,59.74748,59.74748,0,0,1,23.38184,18.49853Q1075.85645,535.07081,1068.8916,536.23975Zm39.54981,104.4331a140.69521,140.69521,0,0,1-50.2461,13.81543,135.2262,135.2262,0,0,1-51.9873-5.38574q.24462-11.46974,22.38672-14.51758,45.52-6.08643,68.15625-9.13183a26.36676,26.36676,0,0,1,13.18359,1.40478q6.71631,2.80957,4.97461,7.96143Q1113.91162,637.86475,1108.44141,640.67285Z" transform="translate(-158.00171 -250.27328)"/><path class="cls-6" d="M1238.71777,528.044a89.85022,89.85022,0,0,1,32.08887,21.54248q14.67334,15.22412,27.61035,42.148,14.17823,30.67821,14.17871,54.09033,1.49121-25.28907,18.40625-61.11475,18.40576-39.56909,38.0586-48.47021a95.44867,95.44867,0,0,1,89.79687,7.02441q47.25732,31.84718,49.749,119.18555a479.757,479.757,0,0,1-8.70606,105.36963q-15.92285-20.83741-18.90527-55.7295A271.25575,271.25575,0,0,1,1480,681.416V650.97607q-.7456-34.42089-13.92969-60.17822-15.92139-30.67236-44.77343-36.76221-22.88819-4.68164-45.52051,8.4292a77.61719,77.61719,0,0,0-31.83887,34.187q-9.457,19.43847-15.91992,57.36816-5.9707,34.19019-5.96973,59.2417,0,22.0122-11.6914,29.50391-13.6831-18.02931-13.1836-23.18165,1.7373-18.0293,0-28.0996-.7456-5.84987-3.97949-28.80079-1.99365-16.85888-4.22852-26.92773-5.97069-29.97-20.64648-51.51416-16.41651-23.88428-33.33106-30.44043a36.39255,36.39255,0,0,0-23.38281-1.1709q-12.68555,3.282-17.41211,13.11279-43.03564,90.15162-35.07226,188.96387-13.188,2.34375-19.65137,3.51172-15.6709-98.10937,25.62109-189.43164,15.16993-33.94848,36.81446-41.91357Q1218.81591,520.55126,1238.71777,528.044Z" transform="translate(-158.00171 -250.27328)"/><path class="cls-6" d="M1652.46191,425.25q-32.0874,56.43311-50.24609,155.479-25.37256,137.217-32.835,162.27-7.46192,25.28907-17.90918,36.52832a42.119,42.119,0,0,1-17.66113,11.708q-11.19288,3.74854-20.89453.70215,40.793-40.50732,50.74414-95.30078,19.15136-105.83716,43.0332-210.74072Q1619.62354,429.468,1652.46191,425.25Zm0-.23438a12.88463,12.88463,0,0,1,5.96973-9.36621,22.43774,22.43774,0,0,1,11.44238-3.74658,22.964,22.964,0,0,1,11.93946,2.10742,14.50789,14.50789,0,0,1,7.46289,8.66407,125.92375,125.92375,0,0,1-38.30664,2.10742Zm43.28125,73.05665a19.851,19.851,0,0,1,14.17872-3.27832,30.0491,30.0491,0,0,1,14.17871,5.62011q8.70409,6.55811,16.91406,23.64942,42.03516,88.74682,41.78906,185.68554a23.19031,23.19031,0,0,1-3.97949,13.34668q-4.23193,6.5581-10.19824,4.21485-5.22365-2.3379-5.96973-12.64453-.99756-15.45411-2.98535-46.59668-1.99365-30.90894-2.98535-46.3628-.9961-12.87523-17.66016-17.09326-14.68067-3.5127-31.3418.70215-44.2793,11.23974-53.48046-8.898,14.6748-2.33789,43.77929-7.25879,29.10352-4.6809,43.7793-7.25879Q1734.04785,532.49659,1695.74316,498.07227Z" transform="translate(-158.00171 -250.27328)"/></svg>